HIERARCHY
ROOT Hips
{
	OFFSET -0.001795 -0.223333 0.028219
	CHANNELS 6 Xposition Yposition Zposition Zrotation Yrotation Xrotation 
	JOINT LeftUpLeg
	{
		OFFSET 0.069520 -0.091406 -0.006815
		CHANNELS 3 Zrotation Yrotation Xrotation
		JOINT LeftLeg
		{
			OFFSET 0.034277 -0.375199 -0.004496
			CHANNELS 3 Zrotation Yrotation Xrotation
			JOINT LeftFoot
			{
				OFFSET -0.013596 -0.397961 -0.043693
				CHANNELS 3 Zrotation Yrotation Xrotation
				JOINT LeftToe
				{
					OFFSET 0.026358 -0.055791 0.119288
					CHANNELS 3 Zrotation Yrotation Xrotation
					End Site
					{
						OFFSET 0.000000 0.000000 0.000000
					}
				}
			}
		}
	}
	JOINT RightUpLeg
	{
		OFFSET -0.067670 -0.090522 -0.004320
		CHANNELS 3 Zrotation Yrotation Xrotation
		JOINT RightLeg
		{
			OFFSET -0.038290 -0.382569 -0.008850
			CHANNELS 3 Zrotation Yrotation Xrotation
			JOINT RightFoot
			{
				OFFSET 0.015774 -0.398415 -0.042312
				CHANNELS 3 Zrotation Yrotation Xrotation
				JOINT RightToe
				{
					OFFSET -0.025372 -0.048144 0.123348
					CHANNELS 3 Zrotation Yrotation Xrotation
					End Site
					{
						OFFSET 0.000000 0.000000 0.000000
					}
				}
			}
		}
	}
	JOINT Spine
	{
		OFFSET -0.002533 0.108963 -0.026696
		CHANNELS 3 Zrotation Yrotation Xrotation
		JOINT Spine1
		{
			OFFSET 0.005487 0.135180 0.001092
			CHANNELS 3 Zrotation Yrotation Xrotation
			JOINT Spine2
			{
				OFFSET 0.001457 0.052922 0.025425
				CHANNELS 3 Zrotation Yrotation Xrotation
				JOINT Neck
				{
					OFFSET -0.002778 0.213870 -0.042857
					CHANNELS 3 Zrotation Yrotation Xrotation
					JOINT Head
					{
						OFFSET 0.005152 0.064970 0.051349
						CHANNELS 3 Zrotation Yrotation Xrotation
						End Site
						{
							OFFSET 0.000000 0.000000 0.000000
						}
					}
				}
				JOINT LeftShoulder
				{
					OFFSET 0.078845 0.121749 -0.034090
					CHANNELS 3 Zrotation Yrotation Xrotation
					JOINT LeftArm
					{
						OFFSET 0.090977 0.030469 -0.008868
						CHANNELS 3 Zrotation Yrotation Xrotation
						JOINT LeftForeArm
						{
							OFFSET 0.259612 -0.012772 -0.027456
							CHANNELS 3 Zrotation Yrotation Xrotation
							JOINT LeftHand
							{
								OFFSET 0.249234 0.008986 -0.001171
								CHANNELS 3 Zrotation Yrotation Xrotation
								End Site
								{
									OFFSET 0.000000 0.000000 0.000000
								}
							}
						}
					}
				}
				JOINT RightShoulder
				{
					OFFSET -0.081759 0.118833 -0.038615
					CHANNELS 3 Zrotation Yrotation Xrotation
					JOINT RightArm
					{
						OFFSET -0.096012 0.032551 -0.009143
						CHANNELS 3 Zrotation Yrotation Xrotation
						JOINT RightForeArm
						{
							OFFSET -0.253742 -0.013329 -0.021401
							CHANNELS 3 Zrotation Yrotation Xrotation
							JOINT RightHand
							{
								OFFSET -0.255298 0.007772 -0.005559
								CHANNELS 3 Zrotation Yrotation Xrotation
								End Site
								{
									OFFSET 0.000000 0.000000 0.000000
								}
							}
						}
					}
				}
			}
		}
	}
}
MOTION
Frames: 16
Frame Time: 0.050000
0.000000 0.788596 0.000000 -6.216529 24.970722 6.627303 22.215693 -3.899539 6.628769 -13.181723 1.214668 26.458263 15.725034 26.371588 -12.875282 0.000000 0.000000 0.000000 -17.300990 -9.456607 -47.811889 16.160549 -4.932116 15.308351 -17.562706 -29.005235 22.587833 0.000000 0.000000 0.000000 5.739037 -6.836760 35.431754 -5.227548 2.162318 -23.529742 -4.768603 -4.766605 26.170435 14.841427 -6.473948 -24.559699 0.000000 0.000000 0.000000 -8.505909 -26.917265 10.196959 -30.504534 -33.126557 2.212289 5.523811 -38.503638 -0.773861 0.000000 0.000000 0.000000 18.232223 5.765015 4.098933 41.302923 7.684640 -3.912720 5.506371 46.229846 5.274025 0.000000 0.000000 0.000000 
-0.003267 0.789497 0.020412 -3.530955 25.368798 9.692782 20.699296 -3.199174 3.498858 -13.434791 1.137523 27.573075 13.744416 21.399838 -18.787978 0.000000 0.000000 0.000000 -19.703377 -12.015813 -50.956804 16.283766 -5.154403 17.132590 -19.272831 -29.812861 28.678360 0.000000 0.000000 0.000000 5.521288 -6.839609 35.552614 -4.938722 2.107437 -23.070362 -6.661904 -5.464330 24.858509 17.843971 -8.230598 -24.662304 0.000000 0.000000 0.000000 -7.892056 -25.919101 9.862823 -29.531702 -31.209840 1.680061 1.699696 -40.025507 0.596818 0.000000 0.000000 0.000000 23.225271 5.229162 4.057252 32.841233 4.713718 -4.037337 0.999085 47.675925 3.057987 0.000000 0.000000 0.000000 
-0.005958 0.786416 0.042826 -3.344790 23.039927 11.918606 20.916905 -3.205537 3.932666 -14.904429 1.744020 24.076579 14.615665 24.724074 -16.314354 0.000000 0.000000 0.000000 -19.223639 -12.167313 -55.034579 17.903722 -6.004622 19.986638 -19.605273 -30.949699 27.703081 0.000000 0.000000 0.000000 6.442802 -6.372348 33.415338 -4.657678 1.970710 -24.183167 -6.026977 -2.747282 25.373303 21.718983 -9.890450 -26.575256 0.000000 0.000000 0.000000 -9.125252 -25.304691 9.559942 -27.375198 -29.691334 0.978934 3.034391 -41.370866 -0.051046 0.000000 0.000000 0.000000 24.525818 1.656637 2.558195 25.214763 7.113690 -3.219551 0.602093 43.203247 2.483271 0.000000 0.000000 0.000000 
-0.008074 0.780664 0.067468 -3.856019 21.290046 12.110993 21.177174 -3.284319 5.317057 -14.905213 1.986209 25.464207 13.897240 23.566789 -18.424291 0.000000 0.000000 0.000000 -19.530853 -12.518969 -57.935196 18.818026 -6.786850 23.415066 -19.014173 -29.712254 31.703199 0.000000 0.000000 0.000000 7.850664 -6.783164 33.619567 -6.372531 2.289589 -23.666648 -5.116759 -2.723969 24.915083 21.123655 -10.429863 -23.830912 0.000000 0.000000 0.000000 -7.892214 -23.791392 9.001847 -24.976821 -29.629866 0.575500 6.594395 -40.234397 -1.281163 0.000000 0.000000 0.000000 21.281266 0.928792 1.542621 22.584327 5.277682 -3.026568 -1.778994 38.247583 1.183910 0.000000 0.000000 0.000000 
-0.010637 0.770072 0.093674 -3.837439 18.150355 11.623431 20.760536 -2.938735 5.674841 -16.904862 2.965988 28.273308 13.877768 25.288337 -22.853413 0.000000 0.000000 0.000000 -18.779241 -11.468420 -60.843589 19.465490 -7.790526 28.607694 -17.734021 -29.451347 28.761586 0.000000 0.000000 0.000000 8.130732 -6.993672 35.518789 -5.417174 2.012273 -24.662391 -6.104449 -0.272903 24.611949 22.045140 -11.907812 -20.874161 0.000000 0.000000 0.000000 -6.191612 -23.579645 8.602726 -23.067646 -25.651584 -0.101902 11.752839 -41.639570 -3.541657 0.000000 0.000000 0.000000 22.012701 0.453244 1.468953 17.268131 3.486158 -2.593789 -2.639969 33.990961 0.588342 0.000000 0.000000 0.000000 
-0.014209 0.753792 0.120862 -3.912978 16.250970 10.918363 21.913474 -3.046693 6.434746 -17.285229 3.587934 32.374153 13.050580 24.057456 -21.653978 0.000000 0.000000 0.000000 -18.186491 -11.272667 -64.694417 20.622257 -9.394036 35.099434 -16.746823 -28.979924 27.369819 0.000000 0.000000 0.000000 8.210126 -7.464922 38.408362 -6.871058 2.174710 -26.656668 -4.153664 0.084834 25.086087 21.750056 -12.339515 -19.585690 0.000000 0.000000 0.000000 -4.147097 -22.929418 8.268130 -21.373783 -24.442026 -0.472572 15.478421 -40.037734 -4.760190 0.000000 0.000000 0.000000 19.932649 0.636686 1.298296 16.523671 -0.818509 -2.722488 -2.362646 32.902655 0.546015 0.000000 0.000000 0.000000 
-0.018368 0.735772 0.149896 -4.578523 14.701709 9.545481 24.583089 -3.461856 7.269015 -17.648601 4.194831 35.012540 12.988796 24.922022 -21.904433 0.000000 0.000000 0.000000 -18.432331 -11.126781 -66.336523 23.354312 -11.687847 39.842351 -17.133701 -29.934720 26.466502 0.000000 0.000000 0.000000 8.735320 -7.961147 40.565221 -6.776908 2.183436 -26.323823 -4.471273 -0.212020 25.184962 20.288381 -11.862899 -18.402609 0.000000 0.000000 0.000000 -2.056153 -23.089173 8.179458 -19.789337 -21.802544 -0.829255 18.444910 -37.620491 -5.450622 0.000000 0.000000 0.000000 19.205075 0.960943 1.132475 16.303168 -2.355810 -2.718678 -1.001804 31.287305 0.789977 0.000000 0.000000 0.000000 
-0.022688 0.719726 0.182380 -5.920971 13.505135 8.913765 25.732702 -3.934274 9.659623 -16.187227 3.888669 34.982263 13.554788 26.533444 -17.978279 0.000000 0.000000 0.000000 -17.371981 -10.335722 -68.615438 25.416786 -14.155313 45.442986 -17.721530 -31.387096 24.299099 0.000000 0.000000 0.000000 8.225508 -7.874666 41.974191 -5.925486 2.000359 -26.629734 -4.146545 -0.766829 25.396219 19.539217 -11.148953 -19.255819 0.000000 0.000000 0.000000 0.775454 -23.484821 8.001481 -21.285125 -19.298387 -1.014049 19.965864 -36.840739 -5.775315 0.000000 0.000000 0.000000 18.821513 1.318941 1.032175 18.942907 -2.666427 -3.149660 0.987325 30.927105 1.304562 0.000000 0.000000 0.000000 
-0.025731 0.704728 0.219030 -7.030323 13.275706 8.504263 26.796744 -4.911117 13.784526 -13.512720 2.850604 31.436897 14.416935 27.866103 -14.154490 0.000000 0.000000 0.000000 -17.183298 -10.363945 -69.706951 28.482133 -17.285974 49.608915 -18.628416 -33.566043 20.698990 0.000000 0.000000 0.000000 8.735097 -8.075104 41.971944 -4.497003 1.714839 -27.054879 -5.350754 -2.089683 26.848079 18.433412 -9.808742 -21.873385 0.000000 0.000000 0.000000 2.031623 -22.862760 7.642531 -22.327899 -19.323725 -1.041687 22.038001 -34.599049 -5.884248 0.000000 0.000000 0.000000 18.049421 1.630695 0.861746 23.972071 -2.177648 -3.924763 2.633468 31.152754 1.795430 0.000000 0.000000 0.000000 
-0.027189 0.692767 0.260529 -8.112354 12.709654 8.695911 26.207357 -5.843370 19.533918 -9.619161 1.565260 25.639544 16.661596 30.976008 -6.048555 0.000000 0.000000 0.000000 -17.706719 -10.488285 -70.173442 31.990543 -20.707115 52.826787 -19.606773 -36.172131 16.987072 0.000000 0.000000 0.000000 10.085795 -8.445973 41.260421 -4.506258 1.703811 -26.567884 -5.654228 -5.065076 26.050965 15.582430 -8.244985 -22.197804 0.000000 0.000000 0.000000 -0.409034 -22.525427 8.116307 -21.047985 -17.883713 -1.225332 22.510316 -33.836375 -5.560121 0.000000 0.000000 0.000000 18.438714 3.321426 0.897074 25.561027 -1.853073 -3.857093 4.850720 29.789433 2.113783 0.000000 0.000000 0.000000 
-0.026319 0.686662 0.307226 -8.471060 10.487372 10.297133 23.132188 -5.405006 24.033075 -5.798000 0.609760 20.592062 18.627241 32.800288 2.415253 0.000000 0.000000 0.000000 -17.121710 -8.898982 -70.967508 34.986441 -23.073099 54.318019 -20.586105 -39.400644 12.776251 0.000000 0.000000 0.000000 10.347388 -7.605360 38.726330 -2.954163 1.357470 -26.155805 -6.818796 -6.934016 26.523828 13.933373 -7.245155 -23.510202 0.000000 0.000000 0.000000 1.066822 -20.528738 7.311882 -24.413691 -17.668715 -1.245011 23.327762 -33.369991 -5.329278 0.000000 0.000000 0.000000 18.633950 4.044418 0.523452 26.534749 -0.111203 -3.547502 4.616310 30.580045 2.015478 0.000000 0.000000 0.000000 
-0.022950 0.688551 0.358374 -9.955640 7.885306 11.018192 19.055526 -4.295469 28.484136 -2.633654 -0.045689 16.977503 18.827799 32.444484 7.020376 0.000000 0.000000 0.000000 -15.896798 -6.450873 -70.720981 35.804530 -23.510881 54.842403 -20.258608 -40.707235 9.107996 0.000000 0.000000 0.000000 12.678490 -7.381722 35.134242 -4.814924 1.660913 -25.992174 -6.398882 -10.033592 26.933941 8.967825 -5.170541 -22.462057 0.000000 0.000000 0.000000 -3.402709 -17.605618 7.424985 -24.662034 -14.968056 -1.877780 21.925923 -34.862756 -4.731510 0.000000 0.000000 0.000000 17.365108 5.362993 0.160004 27.790064 1.946441 -3.079442 5.462798 29.820309 1.935987 0.000000 0.000000 0.000000 
-0.017514 0.698384 0.411578 -10.777889 5.784676 11.704194 16.565924 -3.126520 28.554916 -0.296345 -0.770999 21.516112 14.338928 25.155820 20.450430 0.000000 0.000000 0.000000 -15.479664 -4.980969 -70.779456 35.830125 -24.031325 56.876798 -19.218890 -39.589489 8.425985 0.000000 0.000000 0.000000 14.338275 -6.899129 31.270102 -2.830612 1.218994 -26.043897 -8.596270 -8.898130 27.421616 6.889546 -3.724377 -23.730569 0.000000 0.000000 0.000000 -2.915119 -16.569595 6.878549 -28.374104 -13.124866 -2.280645 20.563593 -37.903534 -4.572564 0.000000 0.000000 0.000000 17.741532 3.515419 -0.884853 28.140714 5.172737 -2.576195 5.326772 31.576906 2.042859 0.000000 0.000000 0.000000 
-0.010613 0.713786 0.462451 -12.485721 2.148328 8.744600 16.152107 -2.071777 24.439110 -2.614678 -0.167434 37.194004 11.473932 21.942356 22.112339 0.000000 0.000000 0.000000 -12.886686 -1.268140 -66.180433 31.963281 -21.826880 60.488385 -17.478200 -36.912106 8.398546 0.000000 0.000000 0.000000 15.682228 -6.781801 31.301195 -4.384579 1.479286 -28.109010 -7.592890 -7.976207 30.950844 8.073016 -4.372432 -26.596447 0.000000 0.000000 0.000000 -0.583291 -12.858877 4.922264 -34.962581 -14.073096 -2.374397 19.077226 -41.359852 -3.938333 0.000000 0.000000 0.000000 11.138392 2.625430 -0.522109 36.076394 7.605965 -3.108308 0.941137 33.752465 0.909701 0.000000 0.000000 0.000000 
0.000214 0.733103 0.507487 -13.099451 -4.153811 4.124372 16.154030 -0.648949 11.799424 -8.621838 6.426863 66.491313 10.243129 20.685800 14.236911 0.000000 0.000000 0.000000 -8.306045 3.470014 -59.829346 25.069166 -16.010046 65.220756 -13.815090 -31.556178 5.522392 0.000000 0.000000 0.000000 13.157613 -5.305488 33.063628 -3.788087 1.340252 -27.179569 -5.341977 -3.049241 28.768164 9.214855 -5.342526 -22.585507 0.000000 0.000000 0.000000 -3.945269 -12.728535 5.227920 -34.556619 -12.182292 -3.011631 14.760534 -42.173685 -2.785377 0.000000 0.000000 0.000000 13.753391 4.665946 0.617941 31.198459 6.820353 -2.864328 -1.901743 35.592520 0.224136 0.000000 0.000000 0.000000 
0.018516 0.753834 0.545910 -13.801860 -10.591220 -2.906727 16.668883 0.716582 -3.168023 -10.505625 14.887117 87.485034 11.416018 22.428179 10.171730 0.000000 0.000000 0.000000 -2.646474 6.077506 -47.984810 19.925737 -9.148412 63.856652 -12.805665 -31.033199 -0.315198 0.000000 0.000000 0.000000 10.319872 -3.900941 37.904391 -2.611849 1.046637 -26.603269 -1.103816 3.583848 27.608728 13.144796 -7.156262 -23.564664 0.000000 0.000000 0.000000 -6.159332 -13.425321 5.300643 -35.173434 -12.306332 -2.970024 11.391616 -41.781342 -2.092075 0.000000 0.000000 0.000000 11.812466 4.096893 1.200145 29.449527 8.610623 -2.616140 -7.298743 38.251981 -1.147552 0.000000 0.000000 0.000000 
